<svg width="769" height="780" viewBox="0 0 769 780" fill="none" xmlns="http://www.w3.org/2000/svg">
<g id="outer-space">
<mask id="mask0_2_126" style="mask-type:alpha" maskUnits="userSpaceOnUse" x="0" y="0" width="770" height="780">
<path id="background" d="M769 391.892C769.085 485.876 735.998 576.756 675.78 647.934C615.563 719.111 532.234 765.835 441.012 779.574H336.871C336.708 779.719 330.935 780 330.935 780C329.966 779.865 328.987 779.719 328.018 779.574C320.604 778.462 313.257 777.134 305.978 775.593C277.477 769.579 249.748 760.249 223.336 747.786C223.061 747.661 222.796 747.526 222.52 747.401C207.802 740.439 193.538 732.519 179.818 723.69C179.471 723.472 179.134 723.254 178.798 723.035C178.216 722.661 177.645 722.297 177.074 721.913C176.89 721.798 176.707 721.684 176.523 721.559C164.257 713.506 152.451 704.746 141.164 695.322C140.613 694.875 140.062 694.408 139.511 693.95C137.298 692.079 135.105 690.187 132.933 688.274C132.913 688.264 132.902 688.243 132.882 688.233C121.781 678.428 111.236 667.988 101.296 656.965C101.265 656.923 101.224 656.892 101.194 656.85C57.5298 608.442 26.5457 549.594 11.1067 485.748C10.9843 485.291 10.8823 484.844 10.7701 484.387C3.59604 454.099 -0.0193641 423.05 1.64684e-05 391.892C1.64684e-05 175.457 172.148 0 384.5 0C596.852 0 769 175.457 769 391.892Z" fill="#202125"/>
</mask>
<g mask="url(#mask0_2_126)">
<rect id="Rectangle 1" width="769" height="779" fill="#202125"/>
<path id="shooting-stars" opacity="0.8" d="M420.047 449.705L453.673 409.582L487.3 369.459L506.282 346.808C507.333 345.555 505.712 343.6 504.662 344.853L471.035 384.976L437.409 425.1L418.426 447.75C417.376 449.003 418.997 450.958 420.047 449.705Z" fill="url(#paint0_linear_2_126)"/>
<path id="shooting-stars_2" opacity="0.8" d="M364.973 227.252L398.599 187.129L432.225 147.005L451.208 124.355C452.258 123.102 450.638 121.147 449.587 122.4L415.961 162.523L382.334 202.646L363.352 225.297C362.301 226.55 363.922 228.505 364.973 227.252Z" fill="url(#paint1_linear_2_126)"/>
<path id="moon" d="M149.856 323.326C187.141 323.326 217.366 292.52 217.366 254.518C217.366 216.517 187.141 185.711 149.856 185.711C112.572 185.711 82.3469 216.517 82.3469 254.518C82.3469 292.52 112.572 323.326 149.856 323.326Z" fill="#E6E6E6"/>
<path id="circle" d="M143.216 215.039C147.495 215.039 150.963 211.504 150.963 207.143C150.963 202.782 147.495 199.247 143.216 199.247C138.938 199.247 135.469 202.782 135.469 207.143C135.469 211.504 138.938 215.039 143.216 215.039Z" fill="#CBCBCB"/>
<path id="circle_2" d="M156.497 293.998C160.775 293.998 164.244 290.463 164.244 286.102C164.244 281.741 160.775 278.206 156.497 278.206C152.218 278.206 148.75 281.741 148.75 286.102C148.75 290.463 152.218 293.998 156.497 293.998Z" fill="#CBCBCB"/>
<path id="circle_3" d="M186.378 247.75C189.434 247.75 191.911 245.225 191.911 242.111C191.911 238.996 189.434 236.471 186.378 236.471C183.322 236.471 180.844 238.996 180.844 242.111C180.844 245.225 183.322 247.75 186.378 247.75Z" fill="#CBCBCB"/>
<path id="circle_4" d="M123.295 278.206C133.075 278.206 141.003 270.126 141.003 260.158C141.003 250.191 133.075 242.111 123.295 242.111C113.516 242.111 105.588 250.191 105.588 260.158C105.588 270.126 113.516 278.206 123.295 278.206Z" fill="#CBCBCB"/>
<path id="dot-stars" d="M257.028 366.725C259.043 366.725 260.676 365.06 260.676 363.007C260.676 360.954 259.043 359.289 257.028 359.289C255.014 359.289 253.381 360.954 253.381 363.007C253.381 365.06 255.014 366.725 257.028 366.725Z" fill="#6C63FF"/>
<path id="dot-stars_2" d="M464.398 199.717C466.413 199.717 468.046 198.052 468.046 195.999C468.046 193.946 466.413 192.281 464.398 192.281C462.384 192.281 460.751 193.946 460.751 195.999C460.751 198.052 462.384 199.717 464.398 199.717Z" fill="#6C63FF"/>
<path id="dot-stars_3" d="M349.088 104.528C345.149 107.203 341.118 100.836 345.133 98.2803C349.071 95.6056 353.103 101.972 349.088 104.528Z" fill="#E6E6E6"/>
<path id="cross-stars" d="M288.642 416.937L286.822 418.78L285.013 416.924L283.8 418.153L285.608 420.008L283.788 421.851L284.993 423.088L286.814 421.245L288.622 423.101L289.835 421.872L288.027 420.017L289.848 418.174L288.642 416.937Z" fill="#E6E6E6"/>
<path id="cross-stars_2" d="M309.803 307.705L307.982 309.548L306.174 307.692L304.96 308.921L306.769 310.777L304.948 312.62L306.154 313.857L307.974 312.014L309.783 313.869L310.996 312.64L309.188 310.785L311.008 308.942L309.803 307.705Z" fill="#E6E6E6"/>
<path id="cross-stars_3" d="M120.916 381.214L118.41 380.654L118.958 378.099L117.288 377.726L116.738 380.281L114.232 379.721L113.866 381.424L116.372 381.984L115.823 384.538L117.494 384.912L118.044 382.357L120.549 382.917L120.916 381.214Z" fill="#E6E6E6"/>
<path id="cross-stars_4" d="M504.396 74.5613L501.89 74.0011L502.438 71.446L500.768 71.0728L500.218 73.6279L497.712 73.0686L497.346 74.7713L499.852 75.3316L499.303 77.8857L500.974 78.2589L501.524 75.7038L504.03 76.264L504.396 74.5613Z" fill="#E6E6E6"/>
<path id="cross-stars_5" d="M700.215 239.842L697.709 239.282L698.258 236.727L696.587 236.353L696.038 238.909L693.532 238.349L693.166 240.052L695.672 240.612L695.123 243.166L696.794 243.54L697.343 240.984L699.849 241.545L700.215 239.842Z" fill="#E6E6E6"/>
<path id="cross-stars_6" d="M226.886 114.871L224.38 114.311L224.928 111.757L223.258 111.384L222.708 113.938L220.201 113.378L219.835 115.081L222.342 115.641L221.793 118.196L223.464 118.569L224.014 116.015L226.519 116.574L226.886 114.871Z" fill="#E6E6E6"/>
<path id="cross-stars_7" d="M437.083 252.316L434.577 251.756L435.125 249.201L433.455 248.827L432.905 251.383L430.399 250.823L430.033 252.526L432.539 253.086L431.99 255.64L433.661 256.014L434.211 253.458L436.717 254.019L437.083 252.316Z" fill="#E6E6E6"/>
<path id="cross-stars_8" d="M533.874 206.347L531.368 205.787L531.916 203.233L530.246 202.86L529.696 205.414L527.189 204.854L526.823 206.557L529.33 207.117L528.781 209.673L530.452 210.045L531.002 207.491L533.508 208.05L533.874 206.347Z" fill="#E6E6E6"/>
<path id="launching-pad" d="M530.212 737.006V756.601C503.12 767.452 474.9 775.111 446.102 779.428H320.655C317.442 778.836 314.239 778.202 311.068 777.526V737.006H530.212Z" fill="#2F2E41"/>
</g>
</g>
<defs>
<linearGradient id="paint0_linear_2_126" x1="418.086" y1="397.279" x2="506.623" y2="397.279" gradientUnits="userSpaceOnUse">
<stop stop-color="white"/>
<stop offset="1" stop-color="white" stop-opacity="0.3"/>
</linearGradient>
<linearGradient id="paint1_linear_2_126" x1="363.012" y1="174.826" x2="451.548" y2="174.826" gradientUnits="userSpaceOnUse">
<stop stop-color="white"/>
<stop offset="1" stop-color="white" stop-opacity="0.3"/>
</linearGradient>
</defs>
</svg>
