<svg width="192" height="478" viewBox="0 0 192 478" fill="none" xmlns="http://www.w3.org/2000/svg">
<g id="rocket">
<path id="Vector" d="M113.91 64.41H79.81V477.95H113.91V64.41Z" fill="#2F2E41"/>
<path id="Vector_2" d="M120.031 69.9098H73.8268C73.1562 62.6716 74.8245 55.3818 79.121 48.0342L80.4274 39.1072H112.33L113.835 47.9212C118.305 53.8767 120.037 61.3968 120.031 69.9098Z" fill="#2F2E41"/>
<path id="Vector_3" d="M113.318 40.2073H80.3962C80.0636 40.2073 79.7353 40.1318 79.4361 39.9867C79.1368 39.8415 78.8744 39.6305 78.6684 39.3693C78.4625 39.1081 78.3185 38.8036 78.2472 38.4787C78.1759 38.1538 78.1792 37.817 78.2568 37.4936L83.8013 14.3916C83.9166 13.911 84.1904 13.4833 84.5785 13.1773C84.9667 12.8713 85.4465 12.7049 85.9407 12.7049H107.774C108.268 12.7049 108.748 12.8713 109.136 13.1773C109.524 13.4833 109.798 13.911 109.913 14.3916L115.458 37.4936C115.535 37.817 115.538 38.1538 115.467 38.4787C115.396 38.8036 115.252 39.1081 115.046 39.3693C114.84 39.6305 114.578 39.8415 114.278 39.9867C113.979 40.1318 113.651 40.2073 113.318 40.2073Z" fill="#2F2E41"/>
<path id="Vector_4" d="M96.86 1.14999C93.7961 1.15357 90.8589 2.37297 88.6934 4.54041C86.5278 6.70784 85.3109 9.64611 85.31 12.71V24.26H108.41V12.71C108.409 9.64611 107.192 6.70784 105.027 4.54041C102.861 2.37297 99.9239 1.15357 96.86 1.14999Z" fill="#2F2E41"/>
<path id="Vector_5" d="M98.54 0.600006C96.089 1.26323 93.9243 2.71406 92.3792 4.72894C90.8342 6.74383 89.9946 9.21092 89.99 11.75V11.85C89.623 11.96 89.2908 12.1634 89.0261 12.4404C88.7614 12.7174 88.5732 13.0584 88.48 13.43L82.94 36.54C82.8655 36.8516 82.8604 37.1759 82.9252 37.4897C82.9899 37.8035 83.123 38.0992 83.3148 38.3559C83.5066 38.6126 83.7524 38.824 84.035 38.975C84.3176 39.1261 84.63 39.2131 84.95 39.23L84.91 39.5L84.76 40.5L82.5 47.5C78.21 54.84 77.84 61.71 78.51 68.95H84.49V349.46L6.45001 450.76L12.19 452.08L11.28 453.26L0.450012 450.76L78.49 349.46V68.95L73.5 68.5C72.83 61.26 74.21 54.84 78.5 47.5L78.76 40.5L78.91 39.5L78.95 39.23C78.63 39.2131 78.3176 39.1261 78.035 38.975C77.7524 38.824 77.5066 38.6126 77.3148 38.3559C77.123 38.0992 76.9899 37.8035 76.9252 37.4897C76.8604 37.1759 76.8655 36.8516 76.94 36.54L82.48 13.43C82.5732 13.0584 82.7614 12.7174 83.0261 12.4404C83.2908 12.1634 83.623 11.96 83.99 11.85V11.75C83.9909 8.68611 85.2078 5.74782 87.3734 3.58038C89.5389 1.41295 92.4761 0.193582 95.54 0.190002C96.5537 0.193056 97.5626 0.330935 98.54 0.600006Z" fill="#E6E6E6"/>
<path id="Vector_6" d="M112.831 350.109L191.117 451.714L180.29 454.213L119.494 375.927H112.831V350.109Z" fill="#2F2E41"/>
<path id="Vector_7" d="M84.49 131.5H78.49V204.5H84.49V131.5Z" fill="#6C63FF"/>
<path id="Vector_8" d="M102.95 216.23L102.88 228.61L102.05 378.87L101.95 396.78L101.73 437.14L101.51 477.95H99.31L99.53 437.14L99.74 399.44L99.85 378.5L100.68 228.64L100.75 216.22L102.95 216.23Z" fill="#6C63FF"/>
<path id="Vector_9" d="M124.177 374.969H118.594V375.506L178.974 453.255L184.062 452.081L124.177 374.969Z" fill="#E6E6E6"/>
<path id="Vector_10" d="M84.051 350.109L5.76501 451.714L16.592 454.213L77.388 375.927H84.051V350.109Z" fill="#2F2E41"/>
<path id="Vector_11" d="M84.4937 374.969H78.4937V476.992H84.4937V374.969Z" fill="#E6E6E6"/>
<path id="Vector_12" d="M78.49 68.95H72.51C71.84 61.71 73.51 54.42 77.8 47.0799L78.76 40.5L78.91 39.5H84.91L84.76 40.5L83.8 47.08C79.51 54.42 77.84 61.71 78.51 68.95H84.49" fill="#6C63FF"/>
</g>
</svg>
